<mxfile host="app.diagrams.net" modified="2024-03-16T00:49:15.423Z" agent="Mozilla/5.0 (Windows NT 10.0; Win64; x64) AppleWebKit/537.36 (KHTML, like Gecko) Chrome/121.0.0.0 Safari/537.36 OPR/107.0.0.0" etag="Q31h5Rz7YiXimlyw1cH1" version="24.0.7" type="google">
  <diagram id="C5RBs43oDa-KdzZeNtuy" name="Page-1">
    <mxGraphModel grid="1" page="1" gridSize="10" guides="1" tooltips="1" connect="1" arrows="1" fold="1" pageScale="1" pageWidth="827" pageHeight="1169" math="0" shadow="0">
      <root>
        <mxCell id="WIyWlLk6GJQsqaUBKTNV-0" />
        <mxCell id="WIyWlLk6GJQsqaUBKTNV-1" parent="WIyWlLk6GJQsqaUBKTNV-0" />
        <mxCell id="w_cQz0ScU-PjQAYE-p9M-5" style="edgeStyle=orthogonalEdgeStyle;rounded=0;orthogonalLoop=1;jettySize=auto;html=1;" edge="1" parent="WIyWlLk6GJQsqaUBKTNV-1" source="Jdm7P_fZjVt-W8_2gLfD-1" target="Jdm7P_fZjVt-W8_2gLfD-21">
          <mxGeometry relative="1" as="geometry" />
        </mxCell>
        <mxCell id="w_cQz0ScU-PjQAYE-p9M-6" style="edgeStyle=orthogonalEdgeStyle;rounded=0;orthogonalLoop=1;jettySize=auto;html=1;" edge="1" parent="WIyWlLk6GJQsqaUBKTNV-1" source="Jdm7P_fZjVt-W8_2gLfD-1" target="Jdm7P_fZjVt-W8_2gLfD-41">
          <mxGeometry relative="1" as="geometry">
            <Array as="points">
              <mxPoint x="50" y="313" />
            </Array>
          </mxGeometry>
        </mxCell>
        <mxCell id="Jdm7P_fZjVt-W8_2gLfD-1" value="&amp;lt;&amp;lt;interfejs&amp;gt;&amp;gt;&lt;div&gt;QuackBeahviour&lt;/div&gt;" style="swimlane;fontStyle=0;childLayout=stackLayout;horizontal=1;startSize=30;fillColor=#f8cecc;horizontalStack=0;resizeParent=1;resizeParentMax=0;resizeLast=0;collapsible=1;marginBottom=0;html=1;strokeColor=#b85450;" vertex="1" parent="WIyWlLk6GJQsqaUBKTNV-1">
          <mxGeometry x="-70" y="180" width="140" height="56" as="geometry" />
        </mxCell>
        <mxCell id="Jdm7P_fZjVt-W8_2gLfD-2" value="quack()" style="text;align=left;verticalAlign=top;spacingLeft=4;spacingRight=4;overflow=hidden;rotatable=0;points=[[0,0.5],[1,0.5]];portConstraint=eastwest;whiteSpace=wrap;html=1;" vertex="1" parent="Jdm7P_fZjVt-W8_2gLfD-1">
          <mxGeometry y="30" width="140" height="26" as="geometry" />
        </mxCell>
        <mxCell id="w_cQz0ScU-PjQAYE-p9M-7" style="edgeStyle=orthogonalEdgeStyle;rounded=0;orthogonalLoop=1;jettySize=auto;html=1;" edge="1" parent="WIyWlLk6GJQsqaUBKTNV-1" source="Jdm7P_fZjVt-W8_2gLfD-5" target="Jdm7P_fZjVt-W8_2gLfD-33">
          <mxGeometry relative="1" as="geometry" />
        </mxCell>
        <mxCell id="w_cQz0ScU-PjQAYE-p9M-8" style="edgeStyle=orthogonalEdgeStyle;rounded=0;orthogonalLoop=1;jettySize=auto;html=1;" edge="1" parent="WIyWlLk6GJQsqaUBKTNV-1" source="Jdm7P_fZjVt-W8_2gLfD-5" target="Jdm7P_fZjVt-W8_2gLfD-37">
          <mxGeometry relative="1" as="geometry" />
        </mxCell>
        <mxCell id="Jdm7P_fZjVt-W8_2gLfD-5" value="&amp;lt;&amp;lt;interfejs&amp;gt;&amp;gt;&lt;div&gt;FlyingBeahviour&lt;/div&gt;" style="swimlane;fontStyle=0;childLayout=stackLayout;horizontal=1;startSize=30;fillColor=#f8cecc;horizontalStack=0;resizeParent=1;resizeParentMax=0;resizeLast=0;collapsible=1;marginBottom=0;html=1;strokeColor=#b85450;" vertex="1" parent="WIyWlLk6GJQsqaUBKTNV-1">
          <mxGeometry x="-70" y="364" width="140" height="56" as="geometry" />
        </mxCell>
        <mxCell id="Jdm7P_fZjVt-W8_2gLfD-6" value="fly()" style="text;align=left;verticalAlign=top;spacingLeft=4;spacingRight=4;overflow=hidden;rotatable=0;points=[[0,0.5],[1,0.5]];portConstraint=eastwest;whiteSpace=wrap;html=1;" vertex="1" parent="Jdm7P_fZjVt-W8_2gLfD-5">
          <mxGeometry y="30" width="140" height="26" as="geometry" />
        </mxCell>
        <mxCell id="Jdm7P_fZjVt-W8_2gLfD-24" value="Squeek" style="swimlane;fontStyle=0;childLayout=stackLayout;horizontal=1;startSize=26;fillColor=#fff2cc;horizontalStack=0;resizeParent=1;resizeParentMax=0;resizeLast=0;collapsible=1;marginBottom=0;html=1;strokeColor=#d6b656;" vertex="1" parent="WIyWlLk6GJQsqaUBKTNV-1">
          <mxGeometry x="160" y="80" width="140" height="80" as="geometry" />
        </mxCell>
        <mxCell id="Jdm7P_fZjVt-W8_2gLfD-25" value="quack(){&lt;div&gt;//&lt;span style=&quot;background-color: initial;&quot;&gt;Duck Squeek&lt;/span&gt;&lt;div&gt;}&lt;/div&gt;&lt;/div&gt;" style="text;strokeColor=none;fillColor=none;align=left;verticalAlign=top;spacingLeft=4;spacingRight=4;overflow=hidden;rotatable=0;points=[[0,0.5],[1,0.5]];portConstraint=eastwest;whiteSpace=wrap;html=1;" vertex="1" parent="Jdm7P_fZjVt-W8_2gLfD-24">
          <mxGeometry y="26" width="140" height="54" as="geometry" />
        </mxCell>
        <mxCell id="Jdm7P_fZjVt-W8_2gLfD-32" value="FlyingWithWings" style="swimlane;fontStyle=0;childLayout=stackLayout;horizontal=1;startSize=26;fillColor=#fff2cc;horizontalStack=0;resizeParent=1;resizeParentMax=0;resizeLast=0;collapsible=1;marginBottom=0;html=1;strokeColor=#d6b656;" vertex="1" parent="WIyWlLk6GJQsqaUBKTNV-1">
          <mxGeometry x="160" y="364" width="140" height="80" as="geometry" />
        </mxCell>
        <mxCell id="Jdm7P_fZjVt-W8_2gLfD-33" value="fly(){&lt;div&gt;// Duck fly&lt;/div&gt;&lt;div&gt;}&lt;/div&gt;" style="text;align=left;verticalAlign=top;spacingLeft=4;spacingRight=4;overflow=hidden;rotatable=0;points=[[0,0.5],[1,0.5]];portConstraint=eastwest;whiteSpace=wrap;html=1;" vertex="1" parent="Jdm7P_fZjVt-W8_2gLfD-32">
          <mxGeometry y="26" width="140" height="54" as="geometry" />
        </mxCell>
        <mxCell id="w_cQz0ScU-PjQAYE-p9M-12" style="edgeStyle=orthogonalEdgeStyle;rounded=0;orthogonalLoop=1;jettySize=auto;html=1;" edge="1" parent="WIyWlLk6GJQsqaUBKTNV-1" source="Jdm7P_fZjVt-W8_2gLfD-36" target="Jdm7P_fZjVt-W8_2gLfD-46">
          <mxGeometry relative="1" as="geometry" />
        </mxCell>
        <mxCell id="Jdm7P_fZjVt-W8_2gLfD-36" value="FlyingNoWay" style="swimlane;fontStyle=0;childLayout=stackLayout;horizontal=1;startSize=26;fillColor=#fff2cc;horizontalStack=0;resizeParent=1;resizeParentMax=0;resizeLast=0;collapsible=1;marginBottom=0;html=1;strokeColor=#d6b656;" vertex="1" parent="WIyWlLk6GJQsqaUBKTNV-1">
          <mxGeometry x="160" y="460" width="140" height="80" as="geometry" />
        </mxCell>
        <mxCell id="Jdm7P_fZjVt-W8_2gLfD-37" value="fly(){&lt;div&gt;// Duck cant fly&lt;/div&gt;&lt;div&gt;}&lt;/div&gt;" style="text;align=left;verticalAlign=top;spacingLeft=4;spacingRight=4;overflow=hidden;rotatable=0;points=[[0,0.5],[1,0.5]];portConstraint=eastwest;whiteSpace=wrap;html=1;" vertex="1" parent="Jdm7P_fZjVt-W8_2gLfD-36">
          <mxGeometry y="26" width="140" height="54" as="geometry" />
        </mxCell>
        <mxCell id="Jdm7P_fZjVt-W8_2gLfD-40" value="MuteQuack" style="swimlane;fontStyle=0;childLayout=stackLayout;horizontal=1;startSize=26;fillColor=#fff2cc;horizontalStack=0;resizeParent=1;resizeParentMax=0;resizeLast=0;collapsible=1;marginBottom=0;html=1;strokeColor=#d6b656;" vertex="1" parent="WIyWlLk6GJQsqaUBKTNV-1">
          <mxGeometry x="160" y="260" width="140" height="80" as="geometry" />
        </mxCell>
        <mxCell id="Jdm7P_fZjVt-W8_2gLfD-41" value="quack(){&lt;div&gt;//Duck dont make noise&lt;/div&gt;&lt;div&gt;}&lt;/div&gt;" style="text;strokeColor=none;fillColor=none;align=left;verticalAlign=top;spacingLeft=4;spacingRight=4;overflow=hidden;rotatable=0;points=[[0,0.5],[1,0.5]];portConstraint=eastwest;whiteSpace=wrap;html=1;" vertex="1" parent="Jdm7P_fZjVt-W8_2gLfD-40">
          <mxGeometry y="26" width="140" height="54" as="geometry" />
        </mxCell>
        <mxCell id="Jdm7P_fZjVt-W8_2gLfD-44" value="MallardDuck" style="swimlane;fontStyle=0;childLayout=stackLayout;horizontal=1;startSize=26;fillColor=#dae8fc;horizontalStack=0;resizeParent=1;resizeParentMax=0;resizeLast=0;collapsible=1;marginBottom=0;html=1;strokeColor=#6c8ebf;" vertex="1" parent="WIyWlLk6GJQsqaUBKTNV-1">
          <mxGeometry x="570" y="250" width="140" height="88" as="geometry" />
        </mxCell>
        <mxCell id="Jdm7P_fZjVt-W8_2gLfD-45" value="quack()" style="text;strokeColor=none;fillColor=none;align=left;verticalAlign=top;spacingLeft=4;spacingRight=4;overflow=hidden;rotatable=0;points=[[0,0.5],[1,0.5]];portConstraint=eastwest;whiteSpace=wrap;html=1;" vertex="1" parent="Jdm7P_fZjVt-W8_2gLfD-44">
          <mxGeometry y="26" width="140" height="34" as="geometry" />
        </mxCell>
        <mxCell id="Jdm7P_fZjVt-W8_2gLfD-60" value="fly()&lt;div&gt;&lt;br&gt;&lt;/div&gt;" style="text;strokeColor=none;fillColor=none;align=left;verticalAlign=top;spacingLeft=4;spacingRight=4;overflow=hidden;rotatable=0;points=[[0,0.5],[1,0.5]];portConstraint=eastwest;whiteSpace=wrap;html=1;" vertex="1" parent="Jdm7P_fZjVt-W8_2gLfD-44">
          <mxGeometry y="60" width="140" height="28" as="geometry" />
        </mxCell>
        <mxCell id="Jdm7P_fZjVt-W8_2gLfD-46" value="RubberDuck" style="swimlane;fontStyle=0;childLayout=stackLayout;horizontal=1;startSize=26;fillColor=#dae8fc;horizontalStack=0;resizeParent=1;resizeParentMax=0;resizeLast=0;collapsible=1;marginBottom=0;html=1;strokeColor=#6c8ebf;" vertex="1" parent="WIyWlLk6GJQsqaUBKTNV-1">
          <mxGeometry x="570" y="462" width="140" height="78" as="geometry" />
        </mxCell>
        <mxCell id="Jdm7P_fZjVt-W8_2gLfD-47" value="quack()" style="text;strokeColor=none;fillColor=none;align=left;verticalAlign=top;spacingLeft=4;spacingRight=4;overflow=hidden;rotatable=0;points=[[0,0.5],[1,0.5]];portConstraint=eastwest;whiteSpace=wrap;html=1;" vertex="1" parent="Jdm7P_fZjVt-W8_2gLfD-46">
          <mxGeometry y="26" width="140" height="24" as="geometry" />
        </mxCell>
        <mxCell id="Jdm7P_fZjVt-W8_2gLfD-62" value="fly()&lt;div&gt;&lt;br&gt;&lt;/div&gt;" style="text;strokeColor=none;fillColor=none;align=left;verticalAlign=top;spacingLeft=4;spacingRight=4;overflow=hidden;rotatable=0;points=[[0,0.5],[1,0.5]];portConstraint=eastwest;whiteSpace=wrap;html=1;" vertex="1" parent="Jdm7P_fZjVt-W8_2gLfD-46">
          <mxGeometry y="50" width="140" height="28" as="geometry" />
        </mxCell>
        <mxCell id="Jdm7P_fZjVt-W8_2gLfD-48" value="ModelDuck" style="swimlane;fontStyle=0;childLayout=stackLayout;horizontal=1;startSize=26;fillColor=#dae8fc;horizontalStack=0;resizeParent=1;resizeParentMax=0;resizeLast=0;collapsible=1;marginBottom=0;html=1;strokeColor=#6c8ebf;" vertex="1" parent="WIyWlLk6GJQsqaUBKTNV-1">
          <mxGeometry x="570" y="80" width="140" height="78" as="geometry" />
        </mxCell>
        <mxCell id="Jdm7P_fZjVt-W8_2gLfD-49" value="quack()" style="text;strokeColor=none;fillColor=none;align=left;verticalAlign=top;spacingLeft=4;spacingRight=4;overflow=hidden;rotatable=0;points=[[0,0.5],[1,0.5]];portConstraint=eastwest;whiteSpace=wrap;html=1;" vertex="1" parent="Jdm7P_fZjVt-W8_2gLfD-48">
          <mxGeometry y="26" width="140" height="24" as="geometry" />
        </mxCell>
        <mxCell id="Jdm7P_fZjVt-W8_2gLfD-63" value="fly()&lt;div&gt;&lt;br&gt;&lt;/div&gt;" style="text;strokeColor=none;fillColor=none;align=left;verticalAlign=top;spacingLeft=4;spacingRight=4;overflow=hidden;rotatable=0;points=[[0,0.5],[1,0.5]];portConstraint=eastwest;whiteSpace=wrap;html=1;" vertex="1" parent="Jdm7P_fZjVt-W8_2gLfD-48">
          <mxGeometry y="50" width="140" height="28" as="geometry" />
        </mxCell>
        <mxCell id="w_cQz0ScU-PjQAYE-p9M-2" style="edgeStyle=orthogonalEdgeStyle;rounded=0;orthogonalLoop=1;jettySize=auto;html=1;" edge="1" parent="WIyWlLk6GJQsqaUBKTNV-1" source="Jdm7P_fZjVt-W8_2gLfD-77" target="Jdm7P_fZjVt-W8_2gLfD-5">
          <mxGeometry relative="1" as="geometry" />
        </mxCell>
        <mxCell id="Jdm7P_fZjVt-W8_2gLfD-77" value="Duck" style="swimlane;fontStyle=0;childLayout=stackLayout;horizontal=1;startSize=26;fillColor=#dae8fc;horizontalStack=0;resizeParent=1;resizeParentMax=0;resizeLast=0;collapsible=1;marginBottom=0;html=1;strokeColor=#6c8ebf;" vertex="1" parent="WIyWlLk6GJQsqaUBKTNV-1">
          <mxGeometry x="-360" y="180" width="200" height="240" as="geometry" />
        </mxCell>
        <mxCell id="Jdm7P_fZjVt-W8_2gLfD-78" value="FlyingBeahaviour: flyingBehaviour" style="text;strokeColor=none;fillColor=none;align=left;verticalAlign=top;spacingLeft=4;spacingRight=4;overflow=hidden;rotatable=0;points=[[0,0.5],[1,0.5]];portConstraint=eastwest;whiteSpace=wrap;html=1;" vertex="1" parent="Jdm7P_fZjVt-W8_2gLfD-77">
          <mxGeometry y="26" width="200" height="34" as="geometry" />
        </mxCell>
        <mxCell id="Jdm7P_fZjVt-W8_2gLfD-85" value="" style="endArrow=none;html=1;rounded=0;entryX=1;entryY=0;entryDx=0;entryDy=0;" edge="1" parent="Jdm7P_fZjVt-W8_2gLfD-77" target="Jdm7P_fZjVt-W8_2gLfD-83">
          <mxGeometry width="50" height="50" relative="1" as="geometry">
            <mxPoint y="90" as="sourcePoint" />
            <mxPoint x="50" y="40" as="targetPoint" />
          </mxGeometry>
        </mxCell>
        <mxCell id="Jdm7P_fZjVt-W8_2gLfD-79" value="QuackBehaviour: quackBehaviour&lt;div&gt;&lt;br&gt;&lt;/div&gt;" style="text;strokeColor=none;fillColor=none;align=left;verticalAlign=top;spacingLeft=4;spacingRight=4;overflow=hidden;rotatable=0;points=[[0,0.5],[1,0.5]];portConstraint=eastwest;whiteSpace=wrap;html=1;" vertex="1" parent="Jdm7P_fZjVt-W8_2gLfD-77">
          <mxGeometry y="60" width="200" height="30" as="geometry" />
        </mxCell>
        <mxCell id="Jdm7P_fZjVt-W8_2gLfD-83" value="swim()" style="text;html=1;align=left;verticalAlign=middle;whiteSpace=wrap;rounded=0;strokeColor=none;fillColor=none;strokeWidth=1;" vertex="1" parent="Jdm7P_fZjVt-W8_2gLfD-77">
          <mxGeometry y="90" width="200" height="30" as="geometry" />
        </mxCell>
        <mxCell id="Jdm7P_fZjVt-W8_2gLfD-84" value="&lt;div&gt;setFlyingBehavior(FlyingBehaviour)&lt;/div&gt;" style="text;html=1;align=left;verticalAlign=middle;whiteSpace=wrap;rounded=0;" vertex="1" parent="Jdm7P_fZjVt-W8_2gLfD-77">
          <mxGeometry y="120" width="200" height="30" as="geometry" />
        </mxCell>
        <mxCell id="Jdm7P_fZjVt-W8_2gLfD-81" value="setQuackBehavior(QuackBehaviour)" style="text;html=1;align=left;verticalAlign=middle;whiteSpace=wrap;rounded=0;" vertex="1" parent="Jdm7P_fZjVt-W8_2gLfD-77">
          <mxGeometry y="150" width="200" height="30" as="geometry" />
        </mxCell>
        <mxCell id="Jdm7P_fZjVt-W8_2gLfD-87" value="performFly(quakBehaviour)" style="text;html=1;align=left;verticalAlign=middle;whiteSpace=wrap;rounded=0;" vertex="1" parent="Jdm7P_fZjVt-W8_2gLfD-77">
          <mxGeometry y="180" width="200" height="30" as="geometry" />
        </mxCell>
        <mxCell id="Jdm7P_fZjVt-W8_2gLfD-86" value="performQuack(flyingBehaviour)" style="text;html=1;align=left;verticalAlign=middle;whiteSpace=wrap;rounded=0;" vertex="1" parent="Jdm7P_fZjVt-W8_2gLfD-77">
          <mxGeometry y="210" width="200" height="30" as="geometry" />
        </mxCell>
        <mxCell id="Jdm7P_fZjVt-W8_2gLfD-20" value="Quack" style="swimlane;fontStyle=0;childLayout=stackLayout;horizontal=1;startSize=26;fillColor=#fff2cc;horizontalStack=0;resizeParent=1;resizeParentMax=0;resizeLast=0;collapsible=1;marginBottom=0;html=1;strokeColor=#d6b656;" vertex="1" parent="WIyWlLk6GJQsqaUBKTNV-1">
          <mxGeometry x="160" y="170" width="140" height="80" as="geometry" />
        </mxCell>
        <mxCell id="Jdm7P_fZjVt-W8_2gLfD-21" value="&amp;nbsp;quack(){&lt;div&gt;//Duck Quack&lt;/div&gt;&lt;div&gt;}&lt;/div&gt;" style="text;strokeColor=none;fillColor=none;align=left;verticalAlign=top;spacingLeft=4;spacingRight=4;overflow=hidden;rotatable=0;points=[[0,0.5],[1,0.5]];portConstraint=eastwest;whiteSpace=wrap;html=1;" vertex="1" parent="Jdm7P_fZjVt-W8_2gLfD-20">
          <mxGeometry y="26" width="140" height="54" as="geometry" />
        </mxCell>
        <mxCell id="w_cQz0ScU-PjQAYE-p9M-0" style="edgeStyle=orthogonalEdgeStyle;rounded=0;orthogonalLoop=1;jettySize=auto;html=1;entryX=0;entryY=0.25;entryDx=0;entryDy=0;" edge="1" parent="WIyWlLk6GJQsqaUBKTNV-1" source="Jdm7P_fZjVt-W8_2gLfD-41" target="Jdm7P_fZjVt-W8_2gLfD-48">
          <mxGeometry relative="1" as="geometry" />
        </mxCell>
        <mxCell id="w_cQz0ScU-PjQAYE-p9M-3" style="edgeStyle=orthogonalEdgeStyle;rounded=0;orthogonalLoop=1;jettySize=auto;html=1;" edge="1" parent="WIyWlLk6GJQsqaUBKTNV-1" source="Jdm7P_fZjVt-W8_2gLfD-79" target="Jdm7P_fZjVt-W8_2gLfD-1">
          <mxGeometry relative="1" as="geometry">
            <Array as="points">
              <mxPoint y="256" />
            </Array>
          </mxGeometry>
        </mxCell>
        <mxCell id="w_cQz0ScU-PjQAYE-p9M-4" style="edgeStyle=orthogonalEdgeStyle;rounded=0;orthogonalLoop=1;jettySize=auto;html=1;" edge="1" parent="WIyWlLk6GJQsqaUBKTNV-1" source="Jdm7P_fZjVt-W8_2gLfD-2" target="Jdm7P_fZjVt-W8_2gLfD-25">
          <mxGeometry relative="1" as="geometry" />
        </mxCell>
        <mxCell id="w_cQz0ScU-PjQAYE-p9M-9" style="edgeStyle=orthogonalEdgeStyle;rounded=0;orthogonalLoop=1;jettySize=auto;html=1;" edge="1" parent="WIyWlLk6GJQsqaUBKTNV-1" source="Jdm7P_fZjVt-W8_2gLfD-37" target="Jdm7P_fZjVt-W8_2gLfD-48">
          <mxGeometry relative="1" as="geometry">
            <Array as="points">
              <mxPoint x="500" y="513" />
              <mxPoint x="500" y="119" />
            </Array>
          </mxGeometry>
        </mxCell>
        <mxCell id="w_cQz0ScU-PjQAYE-p9M-10" style="edgeStyle=orthogonalEdgeStyle;rounded=0;orthogonalLoop=1;jettySize=auto;html=1;" edge="1" parent="WIyWlLk6GJQsqaUBKTNV-1" source="Jdm7P_fZjVt-W8_2gLfD-21" target="Jdm7P_fZjVt-W8_2gLfD-44">
          <mxGeometry relative="1" as="geometry">
            <Array as="points">
              <mxPoint x="380" y="223" />
              <mxPoint x="380" y="260" />
            </Array>
          </mxGeometry>
        </mxCell>
        <mxCell id="w_cQz0ScU-PjQAYE-p9M-11" style="edgeStyle=orthogonalEdgeStyle;rounded=0;orthogonalLoop=1;jettySize=auto;html=1;" edge="1" parent="WIyWlLk6GJQsqaUBKTNV-1" source="Jdm7P_fZjVt-W8_2gLfD-33" target="Jdm7P_fZjVt-W8_2gLfD-44">
          <mxGeometry relative="1" as="geometry">
            <Array as="points">
              <mxPoint x="540" y="417" />
              <mxPoint x="540" y="294" />
            </Array>
          </mxGeometry>
        </mxCell>
        <mxCell id="w_cQz0ScU-PjQAYE-p9M-13" style="edgeStyle=orthogonalEdgeStyle;rounded=0;orthogonalLoop=1;jettySize=auto;html=1;" edge="1" parent="WIyWlLk6GJQsqaUBKTNV-1" source="Jdm7P_fZjVt-W8_2gLfD-25" target="Jdm7P_fZjVt-W8_2gLfD-46">
          <mxGeometry relative="1" as="geometry">
            <Array as="points">
              <mxPoint x="410" y="133" />
              <mxPoint x="410" y="480" />
            </Array>
          </mxGeometry>
        </mxCell>
      </root>
    </mxGraphModel>
  </diagram>
</mxfile>
